<svg t="1573461257599" class="icon" viewBox="0 0 1114 1024" version="1.1" xmlns="http://www.w3.org/2000/svg" p-id="2343" width="200" height="200"><path d="M1080.991796 394.739229l-162.539683-278.639456c-41.795918-71.981859-118.421769-116.099773-199.69161-116.099773H393.681138c-81.269841 0-160.217687 44.117914-199.69161 116.099773l-162.539683 278.639456c-41.795918 71.981859-41.795918 162.539683 0 234.521542l162.539683 278.639456c41.795918 71.981859 118.421769 116.099773 199.69161 116.099773h325.079365c81.269841 0 160.217687-44.117914 199.69161-116.099773l162.539683-278.639456c41.795918-74.303855 41.795918-162.539683 0-234.521542z m-78.947846 185.759637l-162.539683 278.639456c-25.54195 41.795918-71.981859 69.659864-120.743764 69.659864H393.681138c-48.761905 0-95.201814-25.54195-120.743764-69.659864l-162.539683-278.639456c-25.54195-44.117914-25.54195-97.52381 0-139.319728l162.539683-278.639455c25.54195-41.795918 71.981859-69.659864 120.743764-69.659864h325.079365c48.761905 0 95.201814 25.54195 120.743764 69.659864l162.539683 278.639455c25.54195 41.795918 25.54195 97.52381 0 139.319728z" fill="#ffffff" p-id="2344"></path><path d="M556.22082 301.85941c-116.099773 0-208.979592 92.879819-208.979591 208.979592s92.879819 208.979592 208.979591 208.979592 208.979592-92.879819 208.979592-208.979592-92.879819-208.979592-208.979592-208.979592z m0 325.079366c-65.015873 0-116.099773-51.0839-116.099773-116.099774s51.0839-116.099773 116.099773-116.099773 116.099773 51.0839 116.099774 116.099773-51.0839 116.099773-116.099774 116.099774z" fill="#ffffff" p-id="2345"></path></svg>